#N canvas 871 150 1356 922 10;
#X obj 117 10 receive fromSystem;
#X obj 117 35 list trim;
#X obj 212 96 unpack 0 0 0;
#X obj 372 96 unpack 0 0 0;
#X obj 292 96 unpack 0 0 0;
#X obj 144 96 unpack 0 0;
#X obj 452 96 float;
#X obj 118 96 int;
#X text 247 11 1 GET SENSOR DATA FROM PHONE;
#X obj 118 60 route /shake /tilts /accel /gyro /motion /compass;
#X obj 121 373 osc~;
#X obj 98 405 dac~;
#X floatatom 118 229 5 0 0 0 - - - 0;
#X text 166 246 modulator frequency;
#X obj 120 271 osc~;
#X obj 121 311 *~;
#X floatatom 137 294 5 0 0 0 - - - 0;
#X obj 121 348 +~;
#X floatatom 137 331 5 0 0 0 - - - 0;
#X text 179 294 FM index;
#X text 180 330 carrier frequency;
#X msg 346 184 list /xacc \$1;
#X obj 347 220 send toGUI;
#X obj 118 188 expr pow($f1 \, 2)*100;
#X connect 0 0 1 0;
#X connect 1 0 9 0;
#X connect 2 0 21 0;
#X connect 2 0 23 0;
#X connect 9 0 7 0;
#X connect 9 1 5 0;
#X connect 9 2 2 0;
#X connect 9 3 4 0;
#X connect 9 4 3 0;
#X connect 9 5 6 0;
#X connect 10 0 11 1;
#X connect 12 0 14 0;
#X connect 14 0 15 0;
#X connect 14 0 11 0;
#X connect 15 0 17 0;
#X connect 16 0 15 1;
#X connect 17 0 10 0;
#X connect 18 0 17 1;
#X connect 21 0 22 0;
#X connect 23 0 12 0;
