#N canvas -106 167 1282 922 10;
#X obj 117 10 receive fromSystem;
#X obj 117 35 list trim;
#X obj 212 96 unpack 0 0 0;
#X obj 372 96 unpack 0 0 0;
#X obj 292 96 unpack 0 0 0;
#X obj 144 96 unpack 0 0;
#X obj 452 96 float;
#X obj 118 96 int;
#X text 247 11 1 GET SENSOR DATA FROM PHONE;
#X obj 118 60 route /shake /tilts /accel /gyro /motion /compass;
#X obj 118 291 osc~;
#X obj 118 258 line~;
#X obj 159 357 *~;
#X obj 175 332 lop~ 10;
#X obj 175 312 clip~ 0 1;
#X obj 175 291 fexpr~ $x1 - $x1[-1];
#X obj 159 404 dac~;
#X obj 118 193 random 1600;
#X obj 118 214 + 400;
#X obj 159 380 *~ 0.1;
#X obj 118 173 metro 12;
#X obj 172 215 hsl 64 12 -1 1 0 0 empty empty slew 20 6 1 8 #fcfcfc #000000 #000000 0 1;
#X floatatom 183 236 5 0 0 0 - - - 0;
#X obj 118 237 pack 1 3;
#X obj 118 149 bang;
#X floatatom 117 122 5 -1 1 0 - - - 0;
#X obj 374 267 send toGUI;
#X msg 375 238 list /tiltX \$1;
#X connect 0 0 1 0;
#X connect 1 0 9 0;
#X connect 5 0 25 0;
#X connect 5 0 27 0;
#X connect 9 0 7 0;
#X connect 9 1 5 0;
#X connect 9 2 2 0;
#X connect 9 3 4 0;
#X connect 9 4 3 0;
#X connect 9 5 6 0;
#X connect 10 0 12 0;
#X connect 11 0 10 0;
#X connect 11 0 15 0;
#X connect 12 0 19 0;
#X connect 13 0 12 1;
#X connect 14 0 13 0;
#X connect 15 0 14 0;
#X connect 17 0 18 0;
#X connect 18 0 23 0;
#X connect 19 0 16 0;
#X connect 19 0 16 1;
#X connect 20 0 17 0;
#X connect 21 0 22 0;
#X connect 21 0 23 1;
#X connect 23 0 11 0;
#X connect 24 0 20 0;
#X connect 25 0 24 0;
#X connect 25 0 21 0;
#X connect 27 0 26 0;
