#N canvas 1168 147 1282 922 10;
#X obj 117 10 receive fromSystem;
#X obj 117 35 list trim;
#X obj 212 96 unpack 0 0 0;
#X obj 372 96 unpack 0 0 0;
#X obj 292 96 unpack 0 0 0;
#X obj 144 96 unpack 0 0;
#X obj 452 96 float;
#X obj 118 96 int;
#X text 47 133 ------------------------------------------------------------;
#X text 247 11 1 GET SENSOR DATA FROM PHONE;
#X obj 118 60 route /shake /tilts /accel /gyro /motion /compass;
#X floatatom 120 146 5 -1 1 0 - - - 0;
#X msg 346 184 list /xacc \$1;
#X obj 347 220 send toGUI;
#X obj 97 361 noise~;
#X obj 81 405 *~;
#X obj 65 480 dac~;
#X obj 65 289 sig~ 1;
#X obj 65 317 /~;
#X obj 114 267 *~;
#X obj 114 237 *~;
#X obj 163 221 nbx 5 14 0 10 0 1 empty empty pulsewidth 0 -6 1 8 #fcfcfc #000000 #000000 2.5 256;
#X obj 65 429 +~;
#X obj 114 289 +~ 1;
#X obj 65 452 *~ 0.2;
#X obj 81 340 *~ 0.4;
#X obj 97 383 bp~ 700 1;
#X obj 114 188 osc~ 12;
#X obj 174 175 expr pow($f1 \, 2)*10;
#X connect 0 0 1 0;
#X connect 1 0 10 0;
#X connect 2 0 12 0;
#X connect 2 0 11 0;
#X connect 10 0 7 0;
#X connect 10 1 5 0;
#X connect 10 2 2 0;
#X connect 10 3 4 0;
#X connect 10 4 3 0;
#X connect 10 5 6 0;
#X connect 11 0 28 0;
#X connect 12 0 13 0;
#X connect 14 0 26 0;
#X connect 15 0 22 1;
#X connect 17 0 18 0;
#X connect 18 0 22 0;
#X connect 18 0 25 0;
#X connect 19 0 23 0;
#X connect 20 0 19 0;
#X connect 20 0 19 1;
#X connect 21 0 20 1;
#X connect 22 0 24 0;
#X connect 23 0 18 1;
#X connect 24 0 16 1;
#X connect 24 0 16 0;
#X connect 25 0 15 0;
#X connect 26 0 15 1;
#X connect 27 0 20 0;
#X connect 28 0 21 0;
